<svg xmlns="http://www.w3.org/2000/svg" width="300" height="300" viewBox="0 0 300 300">
  <rect width="300" height="300" fill="white"/>
  <rect x="20" y="20" width="80" height="80" fill="black" rx="4"/>
  <rect x="30" y="30" width="60" height="60" fill="white" rx="2"/>
  <rect x="40" y="40" width="40" height="40" fill="black" rx="2"/>
  
  <rect x="200" y="20" width="80" height="80" fill="black" rx="4"/>
  <rect x="210" y="30" width="60" height="60" fill="white" rx="2"/>
  <rect x="220" y="40" width="40" height="40" fill="black" rx="2"/>
  
  <rect x="20" y="200" width="80" height="80" fill="black" rx="4"/>
  <rect x="30" y="210" width="60" height="60" fill="white" rx="2"/>
  <rect x="40" y="220" width="40" height="40" fill="black" rx="2"/>
  
  <rect x="110" y="20" width="15" height="15" fill="black"/>
  <rect x="130" y="20" width="15" height="15" fill="black"/>
  <rect x="150" y="20" width="15" height="15" fill="black"/>
  <rect x="170" y="20" width="15" height="15" fill="black"/>
  
  <rect x="110" y="50" width="15" height="15" fill="black"/>
  <rect x="140" y="50" width="15" height="15" fill="black"/>
  <rect x="170" y="50" width="15" height="15" fill="black"/>
  
  <rect x="110" y="80" width="15" height="15" fill="black"/>
  <rect x="130" y="80" width="15" height="15" fill="black"/>
  <rect x="160" y="80" width="15" height="15" fill="black"/>
  
  <rect x="20" y="110" width="15" height="15" fill="black"/>
  <rect x="50" y="110" width="15" height="15" fill="black"/>
  <rect x="80" y="110" width="15" height="15" fill="black"/>
  <rect x="110" y="110" width="15" height="15" fill="black"/>
  <rect x="140" y="110" width="15" height="15" fill="black"/>
  <rect x="170" y="110" width="15" height="15" fill="black"/>
  <rect x="200" y="110" width="15" height="15" fill="black"/>
  <rect x="230" y="110" width="15" height="15" fill="black"/>
  <rect x="260" y="110" width="15" height="15" fill="black"/>
  
  <rect x="20" y="140" width="15" height="15" fill="black"/>
  <rect x="50" y="140" width="15" height="15" fill="black"/>
  <rect x="80" y="140" width="15" height="15" fill="black"/>
  <rect x="110" y="140" width="15" height="15" fill="black"/>
  <rect x="140" y="140" width="15" height="15" fill="black"/>
  <rect x="170" y="140" width="15" height="15" fill="black"/>
  <rect x="200" y="140" width="15" height="15" fill="black"/>
  <rect x="230" y="140" width="15" height="15" fill="black"/>
  <rect x="260" y="140" width="15" height="15" fill="black"/>
  
  <rect x="20" y="170" width="15" height="15" fill="black"/>
  <rect x="50" y="170" width="15" height="15" fill="black"/>
  <rect x="80" y="170" width="15" height="15" fill="black"/>
  <rect x="110" y="170" width="15" height="15" fill="black"/>
  <rect x="140" y="170" width="15" height="15" fill="black"/>
  <rect x="170" y="170" width="15" height="15" fill="black"/>
  <rect x="200" y="170" width="15" height="15" fill="black"/>
  <rect x="230" y="170" width="15" height="15" fill="black"/>
  <rect x="260" y="170" width="15" height="15" fill="black"/>
  
  <rect x="110" y="200" width="15" height="15" fill="black"/>
  <rect x="140" y="200" width="15" height="15" fill="black"/>
  <rect x="170" y="200" width="15" height="15" fill="black"/>
  <rect x="200" y="200" width="15" height="15" fill="black"/>
  <rect x="230" y="200" width="15" height="15" fill="black"/>
  <rect x="260" y="200" width="15" height="15" fill="black"/>
  
  <rect x="110" y="230" width="15" height="15" fill="black"/>
  <rect x="140" y="230" width="15" height="15" fill="black"/>
  <rect x="170" y="230" width="15" height="15" fill="black"/>
  <rect x="200" y="230" width="15" height="15" fill="black"/>
  <rect x="230" y="230" width="15" height="15" fill="black"/>
  <rect x="260" y="230" width="15" height="15" fill="black"/>
  
  <rect x="110" y="260" width="15" height="15" fill="black"/>
  <rect x="140" y="260" width="15" height="15" fill="black"/>
  <rect x="170" y="260" width="15" height="15" fill="black"/>
  <rect x="200" y="260" width="15" height="15" fill="black"/>
  <rect x="230" y="260" width="15" height="15" fill="black"/>
  <rect x="260" y="260" width="15" height="15" fill="black"/>
  
  <text x="150" y="290" text-anchor="middle" font-family="Arial" font-size="8" fill="#666">Replace with real D17 QR code</text>
</svg>
